<svg id="Layer_1" enable-background="new 0 0 511.985 511.985" height="512" viewBox="0 0 511.985 511.985" width="512" fill="#ffffff" xmlns="http://www.w3.org/2000/svg"><g><path d="m437.006 74.979c-48.35-48.351-112.636-74.979-181.014-74.979s-132.663 26.628-181.013 74.979-74.979 112.635-74.979 181.014c0 68.378 26.628 132.663 74.979 181.014s112.636 74.979 181.014 74.979 132.663-26.628 181.014-74.979 74.979-112.636 74.979-181.014c-.001-68.379-26.629-132.664-74.98-181.014zm-21.213 340.814c-42.685 42.684-99.436 66.191-159.801 66.191s-117.116-23.507-159.801-66.191c-42.684-42.684-66.191-99.436-66.191-159.8s23.507-117.117 66.192-159.801c42.684-42.685 99.435-66.192 159.8-66.192s117.116 23.507 159.801 66.192c42.685 42.684 66.191 99.436 66.191 159.801s-23.506 117.116-66.191 159.8z"/><path d="m217.623 205.601c0-28.474-23.165-51.64-51.64-51.64s-51.64 23.166-51.64 51.64 23.165 51.64 51.64 51.64 51.64-23.166 51.64-51.64zm-73.279 0c0-11.932 9.707-21.64 21.64-21.64s21.64 9.708 21.64 21.64-9.707 21.64-21.64 21.64-21.64-9.708-21.64-21.64z"/><path d="m346.312 153.961c-28.474 0-51.639 23.166-51.639 51.64s23.165 51.64 51.639 51.64c28.475 0 51.64-23.166 51.64-51.64s-23.166-51.64-51.64-51.64zm0 73.279c-11.932 0-21.639-9.708-21.639-21.64s9.707-21.64 21.639-21.64c11.933 0 21.64 9.708 21.64 21.64s-9.708 21.64-21.64 21.64z"/><path d="m347.727 310.354c-76.516-20.118-124.933 1.133-152.072 22.502-29.732 23.411-40.834 51.956-41.292 53.16-2.946 7.743.93 16.442 8.672 19.388 1.764.671 3.573.989 5.353.989 6.035 0 11.713-3.661 13.988-9.64.089-.228 9.193-22.968 32.928-41.172 31.583-24.226 73.568-29.679 124.797-16.212 8.01 2.108 16.213-2.68 18.32-10.693 2.106-8.014-2.681-16.217-10.694-18.322z"/></g></svg>